REM DIRINDEX 1\2,1\3,1\4,1\5\6,1\5\7,1\8
REM DIRNAME folder01,folder02,folder03,folder04,folder05,folder06,folder07,folder08
TITLE ""
FILE "056 Åy056ÅzUnit3 (0637 binding_0648 foil).mp3" MP3
  TRACK 01 AUDIO
    TITLE "0:"
    INDEX 01 00:00:00
  TRACK 02 AUDIO
    TITLE "2:cjc115_2140"
    INDEX 01 00:00:07
  TRACK 03 AUDIO
    TITLE "0:"
    INDEX 01 00:01:30
  TRACK 04 AUDIO
    TITLE "3:cjc115_2141"
    INDEX 01 00:01:40
  TRACK 05 AUDIO
    TITLE "0:"
    INDEX 01 00:03:15
  TRACK 06 AUDIO
    TITLE "4:cjc115_2142"
    INDEX 01 00:03:23
  TRACK 07 AUDIO
    TITLE "0:"
    INDEX 01 00:07:56
  TRACK 08 AUDIO
    TITLE "2:cjc115_2143"
    INDEX 01 00:08:68
  TRACK 09 AUDIO
    TITLE "0:"
    INDEX 01 00:10:10
  TRACK 10 AUDIO
    TITLE "3:cjc115_2144"
    INDEX 01 00:10:21
  TRACK 11 AUDIO
    TITLE "0:"
    INDEX 01 00:11:50
  TRACK 12 AUDIO
    TITLE "4:cjc115_2145"
    INDEX 01 00:11:64
  TRACK 13 AUDIO
    TITLE "0:"
    INDEX 01 00:16:73
  TRACK 14 AUDIO
    TITLE "2:cjc115_2146"
    INDEX 01 00:18:07
  TRACK 15 AUDIO
    TITLE "0:"
    INDEX 01 00:19:40
  TRACK 16 AUDIO
    TITLE "3:cjc115_2147"
    INDEX 01 00:19:44
  TRACK 17 AUDIO
    TITLE "0:"
    INDEX 01 00:22:03
  TRACK 18 AUDIO
    TITLE "4:cjc115_2148"
    INDEX 01 00:22:09
  TRACK 19 AUDIO
    TITLE "0:"
    INDEX 01 00:26:52
  TRACK 20 AUDIO
    TITLE "2:cjc115_2149"
    INDEX 01 00:27:59
  TRACK 21 AUDIO
    TITLE "0:"
    INDEX 01 00:29:03
  TRACK 22 AUDIO
    TITLE "3:cjc115_2150"
    INDEX 01 00:29:13
  TRACK 23 AUDIO
    TITLE "0:"
    INDEX 01 00:30:54
  TRACK 24 AUDIO
    TITLE "4:cjc115_2151"
    INDEX 01 00:30:59
  TRACK 25 AUDIO
    TITLE "0:"
    INDEX 01 00:35:04
  TRACK 26 AUDIO
    TITLE "2:cjc115_2152"
    INDEX 01 00:36:09
  TRACK 27 AUDIO
    TITLE "0:"
    INDEX 01 00:37:34
  TRACK 28 AUDIO
    TITLE "3:cjc115_2153"
    INDEX 01 00:37:44
  TRACK 29 AUDIO
    TITLE "0:"
    INDEX 01 00:40:13
  TRACK 30 AUDIO
    TITLE "4:cjc115_2154"
    INDEX 01 00:40:23
  TRACK 31 AUDIO
    TITLE "0:"
    INDEX 01 00:43:48
  TRACK 32 AUDIO
    TITLE "2:cjc115_2155"
    INDEX 01 00:44:60
  TRACK 33 AUDIO
    TITLE "0:"
    INDEX 01 00:45:67
  TRACK 34 AUDIO
    TITLE "3:cjc115_2156"
    INDEX 01 00:46:02
  TRACK 35 AUDIO
    TITLE "0:"
    INDEX 01 00:49:27
  TRACK 36 AUDIO
    TITLE "4:cjc115_2157"
    INDEX 01 00:49:37
  TRACK 37 AUDIO
    TITLE "0:"
    INDEX 01 00:53:11
  TRACK 38 AUDIO
    TITLE "2:cjc115_2158"
    INDEX 01 00:54:21
  TRACK 39 AUDIO
    TITLE "0:"
    INDEX 01 00:55:46
  TRACK 40 AUDIO
    TITLE "3:cjc115_2159"
    INDEX 01 00:55:57
  TRACK 41 AUDIO
    TITLE "0:"
    INDEX 01 00:58:13
  TRACK 42 AUDIO
    TITLE "4:cjc115_2160"
    INDEX 01 00:58:22
  TRACK 43 AUDIO
    TITLE "0:"
    INDEX 01 01:02:55
  TRACK 44 AUDIO
    TITLE "2:cjc115_2161"
    INDEX 01 01:03:65
  TRACK 45 AUDIO
    TITLE "0:"
    INDEX 01 01:05:21
  TRACK 46 AUDIO
    TITLE "3:cjc115_2162"
    INDEX 01 01:05:28
  TRACK 47 AUDIO
    TITLE "0:"
    INDEX 01 01:07:37
  TRACK 48 AUDIO
    TITLE "4:cjc115_2163"
    INDEX 01 01:07:47
  TRACK 49 AUDIO
    TITLE "0:"
    INDEX 01 01:12:34
  TRACK 50 AUDIO
    TITLE "2:cjc115_2164"
    INDEX 01 01:13:42
  TRACK 51 AUDIO
    TITLE "0:"
    INDEX 01 01:14:63
  TRACK 52 AUDIO
    TITLE "3:cjc115_2165"
    INDEX 01 01:14:74
  TRACK 53 AUDIO
    TITLE "0:"
    INDEX 01 01:16:71
  TRACK 54 AUDIO
    TITLE "4:cjc115_2166"
    INDEX 01 01:17:04
  TRACK 55 AUDIO
    TITLE "0:"
    INDEX 01 01:21:69
  TRACK 56 AUDIO
    TITLE "2:cjc115_2167"
    INDEX 01 01:22:74
  TRACK 57 AUDIO
    TITLE "0:"
    INDEX 01 01:24:12
  TRACK 58 AUDIO
    TITLE "3:cjc115_2168"
    INDEX 01 01:24:22
  TRACK 59 AUDIO
    TITLE "0:"
    INDEX 01 01:25:64
  TRACK 60 AUDIO
    TITLE "4:cjc115_2169"
    INDEX 01 01:25:72
  TRACK 61 AUDIO
    TITLE "0:"
    INDEX 01 01:30:32
  TRACK 62 AUDIO
    TITLE "2:cjc115_2170"
    INDEX 01 01:31:41
  TRACK 63 AUDIO
    TITLE "0:"
    INDEX 01 01:32:70
  TRACK 64 AUDIO
    TITLE "3:cjc115_2171"
    INDEX 01 01:33:05
  TRACK 65 AUDIO
    TITLE "0:"
    INDEX 01 01:35:67
  TRACK 66 AUDIO
    TITLE "4:cjc115_2172"
    INDEX 01 01:36:01
  TRACK 67 AUDIO
    TITLE "0:"
    INDEX 01 01:40:21
  TRACK 68 AUDIO
    TITLE "2:cjc115_2173"
    INDEX 01 01:41:32
  TRACK 69 AUDIO
    TITLE "0:"
    INDEX 01 01:42:43
  TRACK 70 AUDIO
    TITLE "3:cjc115_2174"
    INDEX 01 01:42:53
  TRACK 71 AUDIO
    TITLE "0:"
    INDEX 01 01:45:67
  TRACK 72 AUDIO
    TITLE "4:cjc115_2175"
    INDEX 01 01:46:00
  TRACK 73 AUDIO
    TITLE "0:"
    INDEX 01 01:49:49
